<svg xmlns="http://www.w3.org/2000/svg" viewBox="0 0 380 120" fill="none">
  
  
  <svg x="0" y="0" width="120" height="120" viewBox="0 0 200 200">
    <path fill-rule="evenodd" fill="#0B2A4A" d="M48,32 L86,32 C133,32 164,62 164,100 C164,138 133,168 86,168 L48,168 Z&#xA;         M95,56 a30,44 0 1,0 0,88 a30,44 0 1,0 0,-88 Z"></path>
    <rect x="90" y="66" width="13" height="68" rx="2" fill="#1E63E6"></rect>
    <polygon points="90,66 90,80 76,80" fill="#1E63E6"></polygon>
    <rect x="78" y="122" width="34" height="12" rx="2" fill="#1E63E6"></rect>
  </svg>
  
  <rect x="142" y="22" width="1.5" height="76" rx="1" fill="#DDE4EE"></rect>
  
  <text x="162" y="68" font-family="&#39;Sora&#39;, sans-serif" font-weight="700" font-size="44" letter-spacing="6" fill="#0B2A4A">DHIRA</text>
  <text x="163" y="92" font-family="&#39;Sora&#39;, sans-serif" font-weight="400" font-size="13" letter-spacing="0.5" fill="#6A7686">Grounded data. Trusted AI.</text>
</svg>